{"title":"Antonio da Cunha Telles - O Cerco aka Besieged (1970)","uid":6069498,"size":1567420867,"categoryP":"video","categoryS":"movies","magnet":"?xt=urn:btih:c164fbbeec371f4947459214ef3272532c6602b4&amp;dn=Antonio+da+Cunha+Telles+-+O+Cerco+aka+Besieged+%281970%29&amp;tr=udp%3A%2F%2Ftracker.openbittorrent.com%3A80&amp;tr=udp%3A%2F%2Fopen.demonii.com%3A1337&amp;tr=udp%3A%2F%2Ftracker.coppersurfer.tk%3A6969&amp;tr=udp%3A%2F%2Fexodus.desync.com%3A6969","seeders":0,"leechers":1,"uploader":"mfccorrea","files":3,"time":1293552206,"description":"A look at the portuguese urban society of the late sixties. The story of Marta, a young and pretty girl, who leaves her husband to search for her true identity. She doesn't quite know what she wants, but at least she knows what she's escaping from. Soon she encounters financial difficulties and finds herself involved with shady characters, a situation that leads to a mysterious murder. The net closes around her.\n\n   General\n      Complete name : O Cerco.avi\n      Format : AVI\n      Format/Info : Audio Video Interleave\n      File size : 1.45 GiB\n      Duration : 1h 51mn\n      Overall bit rate : 1 875 Kbps\n      Writing application : VirtualDubMod 1.5.10.2 (build 2540/release)\n      Writing library : VirtualDubMod build 2540/release\n   Video #0\n      ID : 0\n      Format : MPEG-4 Visual\n      Format profile : AdvancedSimple@L5\n      Format settings, BVOP : Yes\n      Format settings, QPel : No\n      Format settings, GMC : No warppoints\n      Format settings, Matrix : Default (MPEG)\n      Codec ID : XVID\n      Codec ID/Hint : XviD\n      Duration : 1h 51mn\n      Bit rate : 1 673 Kbps\n      Width : 640 pixels\n      Height : 480 pixels\n      Display aspect ratio : 4:3\n      Frame rate : 25.000 fps\n      Resolution : 24 bits\n      Colorimetry : 4:2:0\n      Scan type : Progressive\n      Bits/(Pixel*Frame) : 0.218\n      Stream size : 1.30 GiB (89%)\n      Writing library : XviD 1.2.1 (UTC 2008-12-04)\n   Audio #1\n      ID : 1\n      Format : AC-3\n      Format/Info : Audio Coding 3\n      Codec ID : 2000\n      Duration : 1h 51mn\n      Bit rate mode : Constant\n      Bit rate : 192 Kbps\n      Channel(s) : 2 channels\n      Channel positions : L R\n      Sampling rate : 48.0 KHz\n      Stream size : 152 MiB (10%)\n      Alignment : Split accross interleaves\n      Interleave, duration : 40 ms (1.00 video frame)\n      Interleave, preload duration : 500 ms\n\n &lt;a href=&quot;\nhttp://www.imdb.com/title/tt0064144/&quot; rel=&quot;nofollow&quot; target=&quot;_NEW&quot;&gt;\nhttp://www.imdb.com/title/tt0064144/&lt;/a&gt;\n\nPortuguese audio; English, French and Portuguese subpack\n\nOriginally posted at KG by janatas, whom we thank\n","torrent":{"xt":"urn:btih:c164fbbeec371f4947459214ef3272532c6602b4","amp;dn":"Antonio+da+Cunha+Telles+-+O+Cerco+aka+Besieged+%281970%29","amp;tr":["udp%3A%2F%2Ftracker.openbittorrent.com%3A80","udp%3A%2F%2Fopen.demonii.com%3A1337","udp%3A%2F%2Ftracker.coppersurfer.tk%3A6969","udp%3A%2F%2Fexodus.desync.com%3A6969"],"infoHash":"c164fbbeec371f4947459214ef3272532c6602b4","infoHashBuffer":{"type":"Buffer","data":[193,100,251,190,236,55,31,73,71,69,146,20,239,50,114,83,44,102,2,180]},"announce":[],"urlList":[]}}